<?xml version="1.0" encoding="UTF-8"?>
<svg version="1.1" xmlns="http://www.w3.org/2000/svg" width="149" height="132">
<path d="M0 0 C49.17 0 98.34 0 149 0 C149 43.56 149 87.12 149 132 C99.83 132 50.66 132 0 132 C0 88.44 0 44.88 0 0 Z " fill="#FDFEFD" transform="translate(0,0)"/>
<path d="M0 0 C0.96583008 0.00499512 1.93166016 0.00999023 2.92675781 0.01513672 C16.45197946 0.34123535 28.70522835 4.87233858 39.0625 13.75 C39.84625 14.6575 40.63 15.565 41.4375 16.5 C42.06398438 17.19738281 42.69046875 17.89476563 43.3359375 18.61328125 C54.06296678 31.11485627 56.35608733 43.93752708 55.68164062 59.86132812 C54.95733668 67.68960515 52.13339037 75.5917937 48.4375 82.5 C47.7775 82.5 47.1175 82.5 46.4375 82.5 C46.07591797 83.59441406 46.07591797 83.59441406 45.70703125 84.7109375 C44.26607424 87.87660922 42.60469595 89.69948228 40.125 92.125 C39.36574219 92.88039063 38.60648437 93.63578125 37.82421875 94.4140625 C32.00491573 99.5 32.00491573 99.5 28.4375 99.5 C27.9425 100.985 27.9425 100.985 27.4375 102.5 C15.55922928 107.73174455 0.19562043 110.57886525 -12.40625 106.3671875 C-14.59147709 105.49008947 -16.76389497 104.57995015 -18.91796875 103.62890625 C-25.66766772 100.74757242 -30.95859963 103.2182802 -37.47265625 105.54296875 C-41.80411694 106.88457162 -46.04911352 107.30029263 -50.5625 107.5 C-49.90465429 101.236469 -48.60570589 95.448856 -46.84765625 89.41210938 C-45.14342142 83.10398838 -45.86628654 77.9555306 -48 71.875 C-48.24621094 71.16085938 -48.49242187 70.44671875 -48.74609375 69.7109375 C-49.53985106 67.46202835 -49.53985106 67.46202835 -50.63671875 65.2265625 C-54.94490321 52.53832302 -50.43433974 38.12337913 -44.8125 26.6875 C-44.07284157 25.28615918 -43.32697403 23.88795899 -42.5625 22.5 C-41.9025 22.5 -41.2425 22.5 -40.5625 22.5 C-40.30210938 21.91863281 -40.04171875 21.33726563 -39.7734375 20.73828125 C-34.4666578 10.92929812 -22.95304871 4.75016483 -12.78955078 1.09106445 C-8.56402594 -0.03039966 -4.34928093 -0.02960244 0 0 Z " fill="#FAFDFB" transform="translate(74.5625,7.5)"/>
<path d="M0 0 C0.96583008 0.00499512 1.93166016 0.00999023 2.92675781 0.01513672 C16.45197946 0.34123535 28.70522835 4.87233858 39.0625 13.75 C39.84625 14.6575 40.63 15.565 41.4375 16.5 C42.06398438 17.19738281 42.69046875 17.89476563 43.3359375 18.61328125 C54.06296678 31.11485627 56.35608733 43.93752708 55.68164062 59.86132812 C54.95733668 67.68960515 52.13339037 75.5917937 48.4375 82.5 C47.7775 82.5 47.1175 82.5 46.4375 82.5 C46.07591797 83.59441406 46.07591797 83.59441406 45.70703125 84.7109375 C44.26607424 87.87660922 42.60469595 89.69948228 40.125 92.125 C39.36574219 92.88039063 38.60648437 93.63578125 37.82421875 94.4140625 C32.00491573 99.5 32.00491573 99.5 28.4375 99.5 C27.9425 100.985 27.9425 100.985 27.4375 102.5 C15.55922928 107.73174455 0.19562043 110.57886525 -12.40625 106.3671875 C-14.59147709 105.49008947 -16.76389497 104.57995015 -18.91796875 103.62890625 C-25.66766772 100.74757242 -30.95859963 103.2182802 -37.47265625 105.54296875 C-41.80411694 106.88457162 -46.04911352 107.30029263 -50.5625 107.5 C-49.90465429 101.236469 -48.60570589 95.448856 -46.84765625 89.41210938 C-45.14342142 83.10398838 -45.86628654 77.9555306 -48 71.875 C-48.24621094 71.16085938 -48.49242187 70.44671875 -48.74609375 69.7109375 C-49.53985106 67.46202835 -49.53985106 67.46202835 -50.63671875 65.2265625 C-54.94490321 52.53832302 -50.43433974 38.12337913 -44.8125 26.6875 C-44.07284157 25.28615918 -43.32697403 23.88795899 -42.5625 22.5 C-41.9025 22.5 -41.2425 22.5 -40.5625 22.5 C-40.30210938 21.91863281 -40.04171875 21.33726563 -39.7734375 20.73828125 C-34.4666578 10.92929812 -22.95304871 4.75016483 -12.78955078 1.09106445 C-8.56402594 -0.03039966 -4.34928093 -0.02960244 0 0 Z M-34.76953125 27.9609375 C-41.88954222 38.0437417 -44.04769331 49.63252227 -42.03125 61.671875 C-40.93280412 66.37608888 -39.71650158 70.46121089 -37.25 74.625 C-34.61537497 79.42520698 -36.20152939 83.47174332 -37.5625 88.5 C-37.95690657 90.82907459 -38.25691529 93.15718387 -38.5625 95.5 C-37.68207031 95.2834375 -36.80164063 95.066875 -35.89453125 94.84375 C-34.73308594 94.5653125 -33.57164063 94.286875 -32.375 94 C-31.22644531 93.7215625 -30.07789063 93.443125 -28.89453125 93.15625 C-23.88279791 92.16917942 -20.68013238 92.14748015 -16.0625 94.375 C-14.56431548 95.08716518 -13.06426052 95.79540688 -11.5625 96.5 C-10.7890625 96.86609375 -10.015625 97.2321875 -9.21875 97.609375 C1.42226451 101.17724457 14.06862253 98.10526898 23.80078125 93.34375 C25.38196727 92.45651135 26.91812335 91.48936154 28.4375 90.5 C28.4375 89.84 28.4375 89.18 28.4375 88.5 C29.17742187 88.26796875 29.91734375 88.0359375 30.6796875 87.796875 C37.03421083 84.8086289 41.93320279 76.89987065 44.4375 70.5 C47.58019866 59.71163147 48.83430535 45.96079747 43.6953125 35.62890625 C43.28023438 34.92636719 42.86515625 34.22382812 42.4375 33.5 C42.00179687 32.72527344 41.56609375 31.95054688 41.1171875 31.15234375 C34.87770355 20.94072931 25.37354835 14.21667775 14.10546875 10.359375 C-5.40092423 5.78918708 -21.97238293 13.09478915 -34.76953125 27.9609375 Z " fill="#4ECC67" transform="translate(74.5625,7.5)"/>
<path d="M0 0 C0.33 1.32 0.66 2.64 1 4 C-4.75 8 -4.75 8 -7 8 C-7.0928125 8.8353125 -7.0928125 8.8353125 -7.1875 9.6875 C-8.10851718 12.3088566 -9.46377943 13.56688069 -11.4609375 15.44140625 C-15.31240762 19.34175289 -19.25786389 23.77359168 -21 29 C-21.66 29 -22.32 29 -23 29 C-25.32868626 41.51668867 -26.20801071 53.56895849 -23 66 C-22.34 66 -21.68 66 -21 66 C-17.27550926 73.44898149 -20.3237686 86.22932235 -22 94 C-22.66 94.99 -23.32 95.98 -24 97 C-19.4851169 96.69691757 -15.36977692 96.30498267 -11.1875 94.5 C-6.00135008 92.34348735 -0.55160106 92.26832738 5 92 C4.34 91.01 3.68 90.02 3 89 C-3.10670329 88.23666209 -7.32929707 89.6421634 -12.8984375 92.125 C-15 93 -15 93 -17 93 C-18.43121457 86.36436881 -17.33781864 81.52831424 -15.3984375 75.05078125 C-14.90402768 71.2651531 -15.8591636 70.05684219 -18 67 C-18.1875 64.1875 -18.1875 64.1875 -18 62 C-17.01 61.505 -17.01 61.505 -16 61 C-10.2971719 71.0660657 -10.2971719 71.0660657 -11.5625 77.25 C-12.00787464 78.84316872 -12.48568227 80.42773335 -13 82 C-13.3768755 83.37448712 -13.75210395 84.74942792 -14.125 86.125 C-14.41375 87.07375 -14.7025 88.0225 -15 89 C-14.11957031 88.71125 -13.23914062 88.4225 -12.33203125 88.125 C-11.17058594 87.75375 -10.00914063 87.3825 -8.8125 87 C-7.66394531 86.62875 -6.51539062 86.2575 -5.33203125 85.875 C-0.30470364 84.5548108 2.82472084 84.61967167 7.5 86.875 C8.99818452 87.58716518 10.49823948 88.29540688 12 89 C12.7734375 89.36609375 13.546875 89.7321875 14.34375 90.109375 C24.2493129 93.43065197 35.65299716 90.89241483 45 87 C46.66896975 86.00384854 48.33613383 85.00465275 50 84 C50.66 84 51.32 84 52 84 C52 83.34 52 82.68 52 82 C53.03125 81.319375 54.0625 80.63875 55.125 79.9375 C62.43676723 74.89030845 65.68011801 67.31151966 68 59 C68.33 58.01 68.66 57.02 69 56 C69.84617602 46.79243774 70.1798417 37.18302553 65.875 28.8125 C65 27 65 27 65 24 C68 25 68 25 68.94921875 26.671875 C70.33170943 30.56333025 71.39357798 33.80183483 71 38 C71.66 38 72.32 38 73 38 C74.70632299 46.53161497 74.18501678 54.29956912 70 62 C69.3818519 64.33699864 68.88971799 66.67408616 68.4296875 69.046875 C68 71 68 71 67 73 C66.34 73 65.68 73 65 73 C65 73.66 65 74.32 65 75 C64.34 75 63.68 75 63 75 C63 75.66 63 76.32 63 77 C62.34 77 61.68 77 61 77 C60.7525 78.11375 60.505 79.2275 60.25 80.375 C59 84 59 84 57 85.5 C55 86 55 86 53 85 C53 85.66 53 86.32 53 87 C51.515 87.495 51.515 87.495 50 88 C49.26676204 90.01508358 49.26676204 90.01508358 49 92 C57.60583784 87.86700068 57.60583784 87.86700068 64 81 C65.625 79.1875 65.625 79.1875 67 78 C67.66 78 68.32 78 69 78 C66.23027957 84.34905145 60.24499217 90.06118015 54 93 C53.34 93 52.68 93 52 93 C51.505 94.485 51.505 94.485 51 96 C39.12172928 101.23174455 23.75812043 104.07886525 11.15625 99.8671875 C8.97102291 98.99008947 6.79860503 98.07995015 4.64453125 97.12890625 C-2.10516772 94.24757242 -7.39609963 96.7182802 -13.91015625 99.04296875 C-18.24161694 100.38457162 -22.48661352 100.80029263 -27 101 C-26.34215429 94.736469 -25.04320589 88.948856 -23.28515625 82.91210938 C-21.58092142 76.60398838 -22.30378654 71.4555306 -24.4375 65.375 C-24.68371094 64.66085938 -24.92992187 63.94671875 -25.18359375 63.2109375 C-25.97735106 60.96202835 -25.97735106 60.96202835 -27.07421875 58.7265625 C-31.38240321 46.03832302 -26.87183974 31.62337913 -21.25 20.1875 C-20.51034157 18.78615918 -19.76447403 17.38795899 -19 16 C-18.34 16 -17.68 16 -17 16 C-16.74605469 15.4225 -16.49210937 14.845 -16.23046875 14.25 C-12.67118836 7.74160158 -6.50658368 3.25329184 0 0 Z " fill="#49CD63" transform="translate(51,14)"/>
<path d="M0 0 C3.4865065 2.32433767 3.86599377 3.52250506 5.25 7.375 C5.78367187 8.80972656 5.78367187 8.80972656 6.328125 10.2734375 C7.0100165 13.04064834 6.9732027 14.36736194 6 17 C5.34 17 4.68 17 4 17 C3.03347915 19.77874745 2.63419213 21.13450502 3 24 C6.65474486 30.25972259 11.6736192 35.485344 18 39 C21.13023717 39.83483326 21.13023717 39.83483326 24 39 C26.40406384 36.62157423 26.40406384 36.62157423 28 34 C33.85272256 34.45020943 38.08220119 37.03839227 43 40 C43.25157139 45.53457057 42.65110378 48.08258916 39.0625 52.25 C34.25958487 54.99452293 30.39562174 55.05746542 25 54 C8.95746089 48.21075329 -2.11892436 37.5260342 -10.625 22.875 C-12.75021744 18.13103122 -12.67000353 13.08086013 -12 8 C-10.6875 5 -10.6875 5 -9 3 C-8.3503125 2.1028125 -8.3503125 2.1028125 -7.6875 1.1875 C-5.10847356 -0.62737045 -3.0659554 -0.31937035 0 0 Z " fill="#36D753" transform="translate(61,35)"/>
<path d="M0 0 C9.52438429 -0.34057601 21.8164769 0.95975724 30.10546875 6.19921875 C30.85546875 8.32421875 30.85546875 8.32421875 31.10546875 10.19921875 C29.78546875 10.52921875 28.46546875 10.85921875 27.10546875 11.19921875 C27.10546875 10.20921875 27.10546875 9.21921875 27.10546875 8.19921875 C26.03296875 8.40546875 24.96046875 8.61171875 23.85546875 8.82421875 C19.86547165 9.22321846 19.41761691 8.89903818 16.10546875 7.19921875 C5.61133729 5.31383242 -8.21567738 3.9635112 -17.89453125 9.19921875 C-18.22453125 9.85921875 -18.55453125 10.51921875 -18.89453125 11.19921875 C-19.88453125 11.19921875 -20.87453125 11.19921875 -21.89453125 11.19921875 C-21.89453125 11.85921875 -21.89453125 12.51921875 -21.89453125 13.19921875 C-22.82265625 13.24046875 -23.75078125 13.28171875 -24.70703125 13.32421875 C-28.15145299 13.87119081 -28.15145299 13.87119081 -29.58203125 17.07421875 C-30.23171875 18.62109375 -30.23171875 18.62109375 -30.89453125 20.19921875 C-31.89453125 21.19921875 -32.89453125 22.19921875 -33.89453125 23.19921875 C-35.33002954 25.51453857 -36.63274591 27.79298908 -37.89453125 30.19921875 C-38.24684814 30.82223877 -38.59916504 31.44525879 -38.9621582 32.0871582 C-42.39810081 38.78335547 -42.3668585 44.85223555 -42.14453125 52.26171875 C-42.12648438 53.41349609 -42.1084375 54.56527344 -42.08984375 55.75195312 C-42.04309447 58.56859709 -41.97758282 61.38345104 -41.89453125 64.19921875 C-41.23453125 64.19921875 -40.57453125 64.19921875 -39.89453125 64.19921875 C-39.95640625 65.25109375 -40.01828125 66.30296875 -40.08203125 67.38671875 C-40.22906041 71.14495233 -40.22906041 71.14495233 -38.30078125 73.54296875 C-36.41573483 77.10361198 -37.09804633 78.70100926 -38.20703125 82.51171875 C-39.57501724 87.65628144 -40.20614679 91.9017546 -39.89453125 97.19921875 C-39.12109375 96.83828125 -38.34765625 96.47734375 -37.55078125 96.10546875 C-26.59571919 91.2245005 -26.59571919 91.2245005 -19.89453125 92.19921875 C-17.89453125 93.57421875 -17.89453125 93.57421875 -16.89453125 95.19921875 C-16.89453125 95.85921875 -16.89453125 96.51921875 -16.89453125 97.19921875 C-25.30953125 97.69421875 -25.30953125 97.69421875 -33.89453125 98.19921875 C-34.38953125 99.18921875 -34.38953125 99.18921875 -34.89453125 100.19921875 C-37.77664427 101.15992309 -39.59303169 101.30503758 -42.58203125 101.26171875 C-43.39027344 101.25269531 -44.19851562 101.24367188 -45.03125 101.234375 C-45.64613281 101.22277344 -46.26101562 101.21117188 -46.89453125 101.19921875 C-46.58515625 100.06484375 -46.27578125 98.93046875 -45.95703125 97.76171875 C-43.70560308 88.61229787 -43.77433917 79.58755589 -43.89453125 70.19921875 C-44.55453125 70.19921875 -45.21453125 70.19921875 -45.89453125 70.19921875 C-50.02560974 59.52726598 -49.69778468 48.37939 -47.89453125 37.19921875 C-47.26774498 35.84667995 -46.60958348 34.50724112 -45.89453125 33.19921875 C-45.23453125 33.19921875 -44.57453125 33.19921875 -43.89453125 33.19921875 C-43.80816406 32.65394531 -43.72179687 32.10867187 -43.6328125 31.546875 C-42.65441375 28.4356705 -41.00795129 26.26297335 -39.08203125 23.63671875 C-38.39496094 22.68667969 -37.70789062 21.73664062 -37 20.7578125 C-35.09014816 18.43693503 -33.27326678 16.97940044 -30.89453125 15.19921875 C-30.56453125 14.20921875 -30.23453125 13.21921875 -29.89453125 12.19921875 C-28.1075987 11.22452827 -26.31920794 10.25211802 -24.515625 9.30859375 C-22.61748068 8.24936362 -22.61748068 8.24936362 -22.01953125 5.57421875 C-20.89453125 3.19921875 -20.89453125 3.19921875 -19.1015625 2.47265625 C-16.70456359 1.91982001 -14.33200524 1.52933334 -11.89453125 1.19921875 C-10.83685547 1.03292969 -10.83685547 1.03292969 -9.7578125 0.86328125 C-6.51402474 0.41958385 -3.26515571 0.22472732 0 0 Z " fill="#35D754" transform="translate(73.89453125,9.80078125)"/>
<path d="M0 0 C1.890625 0.265625 1.890625 0.265625 4 1 C6.43315632 4.88578696 7.42634867 9.45228087 7 14 C7.66 14 8.32 14 9 14 C10.70632299 22.53161497 10.18501678 30.29956912 6 38 C5.3818519 40.33699864 4.88971799 42.67408616 4.4296875 45.046875 C4 47 4 47 3 49 C2.34 49 1.68 49 1 49 C1 49.66 1 50.32 1 51 C0.34 51 -0.32 51 -1 51 C-1 51.66 -1 52.32 -1 53 C-1.66 53 -2.32 53 -3 53 C-3.2475 54.11375 -3.495 55.2275 -3.75 56.375 C-5 60 -5 60 -7 61.5 C-9 62 -9 62 -11 61 C-11 61.66 -11 62.32 -11 63 C-11.99 63.33 -12.98 63.66 -14 64 C-14.73323796 66.01508358 -14.73323796 66.01508358 -15 68 C-6.39416216 63.86700068 -6.39416216 63.86700068 0 57 C1.625 55.1875 1.625 55.1875 3 54 C3.66 54 4.32 54 5 54 C2.23027957 60.34905145 -3.75500783 66.06118015 -10 69 C-10.66 69 -11.32 69 -12 69 C-12.495 70.485 -12.495 70.485 -13 72 C-15.48707281 73.09542289 -17.78200931 73.92946498 -20.375 74.6875 C-21.49575928 75.01729858 -21.49575928 75.01729858 -22.63916016 75.35375977 C-31.30399524 77.66826535 -40.10131057 77.8573788 -49 77 C-49.99 76.34 -50.98 75.68 -52 75 C-51.42668945 75.02094727 -50.85337891 75.04189453 -50.26269531 75.06347656 C-38.93312623 75.4224962 -29.5576175 75.43697246 -19 71 C-18.34 71 -17.68 71 -17 71 C-17.33 70.01 -17.66 69.02 -18 68 C-19.04220703 68.10828125 -19.04220703 68.10828125 -20.10546875 68.21875 C-27.4085689 68.8851926 -34.66876574 69.1367077 -42 69.1875 C-43.36161255 69.20683594 -43.36161255 69.20683594 -44.75073242 69.2265625 C-49.2742474 69.2332958 -52.897706 69.1622508 -57 67 C-57 66.34 -57 65.68 -57 65 C-57.66 65 -58.32 65 -59 65 C-58.67 64.34 -58.34 63.68 -58 63 C-57.06994141 63.433125 -57.06994141 63.433125 -56.12109375 63.875 C-44.54546002 68.72766742 -33.58120369 68.0784913 -21.8046875 64.16796875 C-19.01412552 63.00588236 -16.58239526 61.55926634 -14 60 C-13.34 60 -12.68 60 -12 60 C-12 59.34 -12 58.68 -12 58 C-10.453125 56.9790625 -10.453125 56.9790625 -8.875 55.9375 C-1.56323277 50.89030845 1.68011801 43.31151966 4 35 C4.33 34.01 4.66 33.02 5 32 C5.9334602 21.84266548 5.89950474 12.13000081 1 3 C0.505 1.515 0.505 1.515 0 0 Z " fill="#57CD6F" transform="translate(115,38)"/>
<path d="M0 0 C0.33 1.32 0.66 2.64 1 4 C-4.75 8 -4.75 8 -7 8 C-7.0928125 8.8353125 -7.0928125 8.8353125 -7.1875 9.6875 C-8.10851718 12.3088566 -9.46377943 13.56688069 -11.4609375 15.44140625 C-15.31240762 19.34175289 -19.25786389 23.77359168 -21 29 C-21.66 29 -22.32 29 -23 29 C-25.32868626 41.51668867 -26.20801071 53.56895849 -23 66 C-22.34 66 -21.68 66 -21 66 C-17.27550926 73.44898149 -20.3237686 86.22932235 -22 94 C-22.66 94.99 -23.32 95.98 -24 97 C-19.37726435 96.68967747 -15.26661083 96.25884632 -11 94.375 C-6.53545785 92.51177374 -2.65821696 93.1050185 2 94 C2 94.33 2 94.66 2 95 C1.04738281 95.19335938 0.09476563 95.38671875 -0.88671875 95.5859375 C-2.76810547 95.97652344 -2.76810547 95.97652344 -4.6875 96.375 C-5.92886719 96.63023438 -7.17023437 96.88546875 -8.44921875 97.1484375 C-11.89484613 97.88173694 -11.89484613 97.88173694 -14.625 99.0625 C-17.24818226 100.09796668 -19.50821386 100.40065711 -22.3125 100.625 C-23.63701172 100.73714844 -23.63701172 100.73714844 -24.98828125 100.8515625 C-25.65214844 100.90054688 -26.31601562 100.94953125 -27 101 C-26.34215429 94.736469 -25.04320589 88.948856 -23.28515625 82.91210938 C-21.58092142 76.60398838 -22.30378654 71.4555306 -24.4375 65.375 C-24.68371094 64.66085938 -24.92992187 63.94671875 -25.18359375 63.2109375 C-25.97735106 60.96202835 -25.97735106 60.96202835 -27.07421875 58.7265625 C-31.38240321 46.03832302 -26.87183974 31.62337913 -21.25 20.1875 C-20.51034157 18.78615918 -19.76447403 17.38795899 -19 16 C-18.34 16 -17.68 16 -17 16 C-16.74605469 15.4225 -16.49210937 14.845 -16.23046875 14.25 C-12.67118836 7.74160158 -6.50658368 3.25329184 0 0 Z " fill="#49CC64" transform="translate(51,14)"/>
<path d="M0 0 C4.66789452 3.56234056 5.90227956 6.66729035 6.71875 12.4296875 C7.08022429 17.01840277 7.24962163 21.58556267 7.3125 26.1875 C7.33030518 27.03062744 7.34811035 27.87375488 7.36645508 28.74243164 C7.359162 34.45964416 6.28204642 38.79060021 4 44 C3.26759109 45.99881495 2.53798516 47.99866162 1.8125 50 C1.46832031 50.94875 1.12414062 51.8975 0.76953125 52.875 C0.38861328 53.926875 0.38861328 53.926875 0 55 C-0.99 55 -1.98 55 -3 55 C-3.33 55.99 -3.66 56.98 -4 58 C-8.53383637 62.90144472 -12.92590502 66.2270436 -19 69 C-19.66 69 -20.32 69 -21 69 C-20.67 67.35 -20.34 65.7 -20 64 C-19.01 64 -18.02 64 -17 64 C-17 63.34 -17 62.68 -17 62 C-14.03 61.505 -14.03 61.505 -11 61 C-10.7834375 59.824375 -10.7834375 59.824375 -10.5625 58.625 C-10 56 -10 56 -9 54 C-8.34 54 -7.68 54 -7 54 C-7 53.34 -7 52.68 -7 52 C-6.34 52 -5.68 52 -5 52 C-5 51.34 -5 50.68 -5 50 C-4.34 50 -3.68 50 -3 50 C-2.89042969 49.27554688 -2.78085938 48.55109375 -2.66796875 47.8046875 C-2.50941406 46.83789062 -2.35085937 45.87109375 -2.1875 44.875 C-2.03667969 43.92367187 -1.88585937 42.97234375 -1.73046875 41.9921875 C-1 39 -1 39 0.53125 36.21875 C2.46626454 31.97818623 2.55887483 28.23345606 2.6875 23.625 C2.72166016 22.79355469 2.75582031 21.96210937 2.79101562 21.10546875 C2.87287146 19.07076649 2.93812701 17.03540792 3 15 C2.34 15 1.68 15 1 15 C0.49242138 13.58603098 -0.00574925 12.16868271 -0.5 10.75 C-0.7784375 9.96109375 -1.056875 9.1721875 -1.34375 8.359375 C-2 6 -2 6 -2 2 C-1.34 2 -0.68 2 0 2 C0 1.34 0 0.68 0 0 Z " fill="#35D754" transform="translate(121,37)"/>
<path d="M0 0 C7.89467308 2.73277145 12.62943656 12.01552998 16.25 19.125 C22.20955513 31.49219711 20.41673334 47.46325843 16.29296875 60.10009766 C15.06329723 63.54299492 13.62329896 66.34107161 11.25 69.125 C11.51266695 67.79003388 11.78572653 66.45711295 12.0625 65.125 C12.21332031 64.3825 12.36414063 63.64 12.51953125 62.875 C13.13163015 60.57062768 13.88148336 58.60321644 14.80078125 56.41796875 C16.58922123 51.73831795 16.70645972 47.40462633 16.625 42.4375 C16.61412354 41.13063232 16.61412354 41.13063232 16.60302734 39.79736328 C16.51692779 27.53223261 16.51692779 27.53223261 11.25 17.125 C10.92 17.455 10.59 17.785 10.25 18.125 C7.875 18.5 7.875 18.5 5.25 18.125 C3.13798566 15.46542639 2.25357397 13.13738977 1.3125 9.875 C0.7865625 8.51375 0.7865625 8.51375 0.25 7.125 C-1.78243548 6.15622943 -1.78243548 6.15622943 -3.75 6.125 C-3.75 5.135 -3.75 4.145 -3.75 3.125 C-4.41 2.795 -5.07 2.465 -5.75 2.125 C-2.75 0.125 -2.75 0.125 0 0 Z " fill="#3DD35B" transform="translate(110.75,20.875)"/>
<path d="M0 0 C1.65 0 3.3 0 5 0 C5.33 1.32 5.66 2.64 6 4 C8.31 4 10.62 4 13 4 C13.33 6.31 13.66 8.62 14 11 C13.34 11 12.68 11 12 11 C11.67 11.66 11.34 12.32 11 13 C10.01 13.33 9.02 13.66 8 14 C8 14.66 8 15.32 8 16 C4.04 16 0.08 16 -4 16 C-4.33 15.01 -4.66 14.02 -5 13 C-5.99 12.34 -6.98 11.68 -8 11 C-7.8125 9.125 -7.8125 9.125 -7 7 C-6.195625 6.690625 -5.39125 6.38125 -4.5625 6.0625 C-1.75492583 5.22618194 -1.75492583 5.22618194 -0.6875 2.375 C-0.460625 1.59125 -0.23375 0.8075 0 0 Z " fill="#35D751" transform="translate(89,71)"/>
<path d="M0 0 C3.875 1.875 3.875 1.875 5 3 C5.72302181 9.35424941 4.53155241 14.19852572 2 20 C3.155 19.67 4.31 19.34 5.5 19 C10.09366812 17.85972777 15.46732714 16.70433788 19.85546875 18.94921875 C22.56690572 20.27777348 25.08044737 20.62276733 28.0625 21.0625 C31.19823203 21.53150318 33.9884366 21.99614553 37 23 C45.24448061 23.76546928 51.61026872 22.66809125 59 19 C59.7321875 18.66742188 60.464375 18.33484375 61.21875 17.9921875 C63.17360309 17.12259559 63.17360309 17.12259559 64 15 C64.99 14.67 65.98 14.34 67 14 C67.66 13.01 68.32 12.02 69 11 C69.66 11 70.32 11 71 11 C71 10.34 71 9.68 71 9 C71.99 9 72.98 9 74 9 C72.61122646 12.35620271 71.08322035 14.07298728 68 16 C67.34 16 66.68 16 66 16 C66 16.66 66 17.32 66 18 C53.3289071 24.71567924 41.70387211 29.03950607 27.17578125 24.9140625 C18.6803952 21.6803952 18.6803952 21.6803952 17 20 C10.91016219 20.55362162 4.97823082 21.73820128 -1 23 C-0.86722656 22.443125 -0.73445313 21.88625 -0.59765625 21.3125 C2.11202856 10.60287809 2.11202856 10.60287809 0 0 Z " fill="#CEFBD8" transform="translate(37,80)"/>
<path d="M0 0 C2 0 2 0 3.5625 1.5 C4.036875 1.995 4.51125 2.49 5 3 C5.33 3 5.66 3 6 3 C6.33 5.64 6.66 8.28 7 11 C7.66 11 8.32 11 9 11 C10.13095489 26.81596913 10.65749393 39.57872496 3 54 C2.01 54.495 2.01 54.495 1 55 C1 55.66 1 56.32 1 57 C0.01 57 -0.98 57 -2 57 C-2 57.66 -2 58.32 -2 59 C-2.66 59 -3.32 59 -4 59 C-3.67 57.68 -3.34 56.36 -3 55 C-2.34 55 -1.68 55 -1 55 C-0.26612648 52.89206543 0.44466826 50.7796665 1.1328125 48.65625 C1.68029758 46.97926867 2.25503331 45.31072077 2.8671875 43.65625 C7.20719576 30.59489182 6.50259356 15.53000219 1 3 C0.67 2.01 0.34 1.02 0 0 Z " fill="#EBFDEB" transform="translate(124,35)"/>
<path d="M0 0 C-2.81064107 1.87376071 -5.49883458 3.16048362 -8.5625 4.5625 C-15.67476593 8.07547601 -21.95396549 12.80900216 -26.65234375 19.2734375 C-27.09707031 19.84320312 -27.54179688 20.41296875 -28 21 C-28.66 21 -29.32 21 -30 21 C-31.53536383 24.82769774 -33.05948989 28.65947267 -34.5625 32.5 C-35.21412109 34.15515625 -35.21412109 34.15515625 -35.87890625 35.84375 C-37.8235358 41.31852586 -38.22378356 46.40133877 -38.25 52.1875 C-38.25394775 52.939104 -38.25789551 53.69070801 -38.26196289 54.46508789 C-38.20693761 59.73787131 -37.47068779 64.26039563 -35.55859375 69.21484375 C-35 71 -35 71 -36 73 C-39.45073496 66.51700888 -40.62386588 61.24877677 -40.4375 53.9375 C-40.4264624 53.03080566 -40.4154248 52.12411133 -40.40405273 51.18994141 C-40.17775075 41.95454915 -38.93036239 32.79108718 -36 24 C-35.01 23.6596875 -35.01 23.6596875 -34 23.3125 C-33.34 22.879375 -32.68 22.44625 -32 22 C-31.80682225 19.97163367 -31.61651456 17.94261594 -31.47265625 15.91015625 C-31 14 -31 14 -28.0625 12 C-25 11 -25 11 -23 11 C-23 10.34 -23 9.68 -23 9 C-21.02 8.67 -19.04 8.34 -17 8 C-17 7.34 -17 6.68 -17 6 C-16.01 5.67 -15.02 5.34 -14 5 C-13.67 4.34 -13.34 3.68 -13 3 C-8.8307633 0.87641682 -4.71023203 -0.44158425 0 0 Z " fill="#DDFCE0" transform="translate(62,9)"/>
<path d="M0 0 C0.495 1.98 0.495 1.98 1 4 C-9.96675565 7.95400034 -21.45862491 9.59092094 -33 7 C-35.4375 5.4375 -35.4375 5.4375 -37 4 C-35.31940247 2.31940247 -33.20388108 2.8116298 -30.8984375 2.75390625 C-29.85042969 2.72103516 -28.80242187 2.68816406 -27.72265625 2.65429688 C-25.51440993 2.59374403 -23.3060735 2.53638201 -21.09765625 2.48242188 C-13.99853878 2.25271905 -6.91004643 -0.41879069 0 0 Z " fill="#36D755" transform="translate(97,105)"/>
<path d="M0 0 C1 3 1 3 0.1875 5.0625 C-2.25261557 9.04374119 -5.82967372 10.78854632 -9.8125 13.01171875 C-12.48464973 14.509236 -14.8224309 15.8224309 -17 18 C-19.37828319 19.50624602 -20.43318383 20.09446936 -23.25 19.625 C-24.11625 19.315625 -24.11625 19.315625 -25 19 C-25 19.66 -25 20.32 -25 21 C-34.58640684 26.75184411 -48.2584261 24.24099344 -58.48046875 21.94921875 C-59.31191406 21.63597656 -60.14335938 21.32273437 -61 21 C-61.33 20.01 -61.66 19.02 -62 18 C-61.45472656 18.13929932 -60.90945312 18.27859863 -60.34765625 18.42211914 C-45.6438435 21.96454411 -30.97351657 20.79509157 -17 15 C-15.26602231 13.58459941 -15.26602231 13.58459941 -14 12 C-12.74341099 11.04349194 -11.47153349 10.10683759 -10.1875 9.1875 C-6.42028083 6.40908882 -3.22571281 3.38699845 0 0 Z " fill="#C7F7D0" transform="translate(119,94)"/>
<path d="M0 0 C8.06348794 6.12825083 13.31963887 14.19609742 16 24 C16.39598608 27.13873214 16.43008657 30.21468659 16.375 33.375 C16.36557373 34.21135986 16.35614746 35.04771973 16.34643555 35.90942383 C16.11415528 45.41810793 13.99328105 53.42433452 8 61 C7.01 61.495 7.01 61.495 6 62 C6 60.68 6 59.36 6 58 C6.66 58 7.32 58 8 58 C7.9175 56.96875 7.835 55.9375 7.75 54.875 C8.04089886 50.36606768 9.33135279 48.55819628 12 45 C13.19651161 41.41046516 13.19178975 38.11265554 13.1875 34.375 C13.18669434 33.65948975 13.18588867 32.94397949 13.18505859 32.20678711 C13.12354068 26.88066303 12.61369092 22.11002125 11 17 C10.34 16.67 9.68 16.34 9 16 C8.896875 15.401875 8.79375 14.80375 8.6875 14.1875 C8.13883087 11.71829306 8.13883087 11.71829306 5.4375 10 C4.633125 9.34 3.82875 8.68 3 8 C3 6.68 3 5.36 3 4 C2.01 3.67 1.02 3.34 0 3 C0 2.01 0 1.02 0 0 Z " fill="#D4FBD9" transform="translate(105,27)"/>
<path d="M0 0 C0 0.33 0 0.66 0 1 C-7.30478589 1.37783375 -7.30478589 1.37783375 -10.875 -0.5625 C-18.51375658 -4.07632802 -29.31053109 -0.32018688 -37 2 C-41.01376123 3.87878185 -43.98614071 6.79169817 -47 10 C-47.886875 10.86625 -48.77375 11.7325 -49.6875 12.625 C-52.01291149 14.77286324 -52.01291149 14.77286324 -53 17 C-54.64363134 17.72159424 -56.31050386 18.39351421 -58 19 C-53.50516834 9.18119297 -44.7177021 2.41753692 -35.0625 -1.875 C-23.39154 -6.06353268 -11.15630011 -5.39743245 0 0 Z " fill="#C8FAD3" transform="translate(96,21)"/>
<path d="M0 0 C0.33 1.32 0.66 2.64 1 4 C-4.75 8 -4.75 8 -7 8 C-7.0928125 8.8353125 -7.0928125 8.8353125 -7.1875 9.6875 C-8.10851718 12.3088566 -9.46377943 13.56688069 -11.4609375 15.44140625 C-15.31240762 19.34175289 -19.25786389 23.77359168 -21 29 C-21.66 29 -22.32 29 -23 29 C-23.33 30.32 -23.66 31.64 -24 33 C-24.87823436 30.53870625 -25.09761018 29.3063126 -24.29296875 26.78125 C-23.92816406 26.0284375 -23.56335938 25.275625 -23.1875 24.5 C-22.83042969 23.7471875 -22.47335938 22.994375 -22.10546875 22.21875 C-19.87698413 17.74603175 -19.87698413 17.74603175 -19 16 C-18.34 16 -17.68 16 -17 16 C-16.74605469 15.4225 -16.49210937 14.845 -16.23046875 14.25 C-12.67118836 7.74160158 -6.50658368 3.25329184 0 0 Z " fill="#3ED258" transform="translate(51,14)"/>
<path d="M0 0 C0.97839844 -0.00386719 1.95679687 -0.00773438 2.96484375 -0.01171875 C3.98707031 -0.00011719 5.00929688 0.01148438 6.0625 0.0234375 C7.54943359 0.00603516 7.54943359 0.00603516 9.06640625 -0.01171875 C25.42329419 0.05225865 25.42329419 0.05225865 30.75439453 4.95410156 C31.18606934 5.43073242 31.61774414 5.90736328 32.0625 6.3984375 C33.92975857 7.20888709 33.92975857 7.20888709 35.9375 7.7734375 C39.9608288 9.18864155 42.35072665 11.02926455 45.0625 14.3984375 C45.875 16.7109375 45.875 16.7109375 46.0625 18.3984375 C43.5625 17.0234375 43.5625 17.0234375 41.0625 15.3984375 C41.0625 14.7384375 41.0625 14.0784375 41.0625 13.3984375 C40.33417969 13.11871094 39.60585937 12.83898438 38.85546875 12.55078125 C35.46239676 11.15084246 32.28334908 9.44793474 29.05078125 7.71484375 C20.42195432 3.9136481 12.8325479 2.98833308 3.4375 3.2109375 C2.33792969 3.22447266 1.23835938 3.23800781 0.10546875 3.25195312 C-2.57605332 3.2869295 -5.25650073 3.33600678 -7.9375 3.3984375 C-5.47727516 0.35239683 -3.85731874 0.01486852 0 0 Z " fill="#CFFAD7" transform="translate(69.9375,5.6015625)"/>
<path d="M0 0 C3.39417765 3.12621626 5.6062718 5.56541027 7 10 C8.32 10 9.64 10 11 10 C11 10.99 11 11.98 11 13 C11.99 12.67 12.98 12.34 14 12 C14.45375 12.474375 14.9075 12.94875 15.375 13.4375 C16.93258204 15.09027808 16.93258204 15.09027808 19 16 C19 16.66 19 17.32 19 18 C21.31 18 23.62 18 26 18 C26.33 19.32 26.66 20.64 27 22 C28.79258558 21.91306859 30.58415144 21.80489496 32.375 21.6875 C33.37273437 21.62949219 34.37046875 21.57148437 35.3984375 21.51171875 C36.25695312 21.34285156 37.11546875 21.17398438 38 21 C38.66 20.01 39.32 19.02 40 18 C42.625 17.3125 42.625 17.3125 45 17 C43.68291409 20.95125774 42.61691275 21.90219061 39 24 C29.04613039 26.40507961 20.22979336 21.0117028 12 16 C6.47510381 12.29850189 2.76213113 7.42959585 -1 2 C-0.67 1.34 -0.34 0.68 0 0 Z " fill="#53CB6F" transform="translate(58,65)"/>
<path d="M0 0 C3.40518414 3.02037655 5.01704748 5.78434695 6.6875 10 C7.10386719 11.03125 7.52023438 12.0625 7.94921875 13.125 C12.9651107 26.84877873 10.71904963 42.85424084 5 56 C3.33203125 58.4375 3.33203125 58.4375 2 60 C2.26266695 58.66503388 2.53572653 57.33211295 2.8125 56 C2.96332031 55.2575 3.11414063 54.515 3.26953125 53.75 C3.88163015 51.44562768 4.63148336 49.47821644 5.55078125 47.29296875 C7.33908904 42.61366385 7.45738214 38.27937643 7.375 33.3125 C7.36629883 32.43835449 7.35759766 31.56420898 7.34863281 30.66357422 C7.12854398 20.86601314 5.9691049 12.02741694 0 4 C0 2.68 0 1.36 0 0 Z " fill="#54C868" transform="translate(120,30)"/>
<path d="M0 0 C1.18150923 3.49495389 0.79224628 5.98054277 0.0625 9.5625 C-1.76962701 19.78774939 -0.91678816 29.70250436 0 40 C-4.73179491 35.26820509 -5.2083313 26.43369915 -5.4375 20 C-5.27002407 12.94740245 -3.14605144 6.29210289 0 0 Z " fill="#CCFAD2" transform="translate(37,40)"/>
<path d="M0 0 C0.33 0 0.66 0 1 0 C0.98952637 0.70495605 0.97905273 1.40991211 0.96826172 2.13623047 C0.92625495 5.38244956 0.9005334 8.62861116 0.875 11.875 C0.85824219 12.98359375 0.84148438 14.0921875 0.82421875 15.234375 C0.78395785 22.07872779 1.33267794 28.35514827 3 35 C3.66 35 4.32 35 5 35 C6.34553453 37.69106907 6.20594114 39.87165422 6.25 42.875 C6.28867187 44.44894531 6.28867187 44.44894531 6.328125 46.0546875 C5.96595818 49.30556586 5.18132146 50.62350767 3 53 C3.16048828 51.80503906 3.16048828 51.80503906 3.32421875 50.5859375 C4.0333733 44.31792629 4.36226702 40.52372439 1 35 C-1.69139043 28.88100921 -2.28164052 22.97533999 -2.3125 16.375 C-2.31789795 15.67076904 -2.3232959 14.96653809 -2.32885742 14.2409668 C-2.26154126 9.22386427 -1.36157839 4.82790745 0 0 Z " fill="#56C86B" transform="translate(25,45)"/>
<path d="M0 0 C1.48009643 0.97776067 2.95905144 1.9572494 4.4375 2.9375 C5.26121094 3.48277344 6.08492188 4.02804688 6.93359375 4.58984375 C9 6 9 6 10 7 C12.87306228 7.50095023 12.87306228 7.50095023 16 7 C18.40406384 4.62157423 18.40406384 4.62157423 20 2 C25.85272256 2.45020943 30.08220119 5.03839227 35 8 C35 9.98 35 11.96 35 14 C33 10.25 33 10.25 33 8 C30.69 8 28.38 8 26 8 C25.67 6.68 25.34 5.36 25 4 C22.54775306 4.10613836 22.54775306 4.10613836 20 5 C19.690625 5.825 19.38125 6.65 19.0625 7.5 C18.5365625 8.7375 18.5365625 8.7375 18 10 C14.16582865 11.19285331 10.79718249 11.37120479 7 10 C5.9375 8.0625 5.9375 8.0625 5 6 C4.319375 5.67 3.63875 5.34 2.9375 5 C2.298125 4.67 1.65875 4.34 1 4 C0.37890625 1.9375 0.37890625 1.9375 0 0 Z " fill="#4DCD6A" transform="translate(69,67)"/>
<path d="M0 0 C0.96292969 -0.00322266 1.92585938 -0.00644531 2.91796875 -0.00976562 C7.86780265 0.02768154 12.34047914 0.08984141 16.875 2.3125 C17.37 3.7975 17.37 3.7975 17.875 5.3125 C16.658125 4.9825 15.44125 4.6525 14.1875 4.3125 C5.22898831 2.32328717 -4.10181324 3.01596443 -13.125 4.3125 C-13.81980469 4.40789063 -14.51460937 4.50328125 -15.23046875 4.6015625 C-16.8632398 4.82969418 -18.49435491 5.06963797 -20.125 5.3125 C-18.68365468 2.42980937 -16.48867067 1.96558495 -13.56738281 0.93212891 C-9.07612992 -0.20729531 -4.60663328 -0.07770974 0 0 Z " fill="#58CF71" transform="translate(75.125,7.6875)"/>
<path d="M0 0 C1.5625 1.5 1.5625 1.5 3 4 C2.53218792 10.49089256 0.98998381 16.6943935 -0.5625 23 C-0.79646484 23.96550781 -1.03042969 24.93101563 -1.27148438 25.92578125 C-1.84373134 28.28484017 -2.41997829 30.64284292 -3 33 C-0.03 32.505 -0.03 32.505 3 32 C2.67 32.66 2.34 33.32 2 34 C0.02 34 -1.96 34 -4 34 C-4.40870748 25.87126226 -3.50835478 18.45070053 -1.75390625 10.54296875 C-1.00832706 7.03913285 -0.46824508 3.55047972 0 0 Z " fill="#CCF7D1" transform="translate(27,82)"/>
<path d="M0 0 C1.134375 0.020625 2.26875 0.04125 3.4375 0.0625 C3.7675 1.0525 4.0975 2.0425 4.4375 3.0625 C1.7975 2.7325 -0.8425 2.4025 -3.5625 2.0625 C-3.8925 3.0525 -4.2225 4.0425 -4.5625 5.0625 C-5.5418879 6.08269573 -6.54145449 7.08399805 -7.5625 8.0625 C-9.74678683 12.43107367 -9.24559324 18.74316018 -7.890625 23.34375 C-7.19176529 24.95244594 -6.3878838 26.51490538 -5.5625 28.0625 C-6.2225 28.0625 -6.8825 28.0625 -7.5625 28.0625 C-7.5625 27.0725 -7.5625 26.0825 -7.5625 25.0625 C-8.2225 25.0625 -8.8825 25.0625 -9.5625 25.0625 C-11.98729736 21.42530395 -11.94912577 19.20546518 -12.1875 14.875 C-12.26226562 13.60269531 -12.33703125 12.33039062 -12.4140625 11.01953125 C-12.46304688 10.04371094 -12.51203125 9.06789063 -12.5625 8.0625 C-11.9025 8.0625 -11.2425 8.0625 -10.5625 8.0625 C-10.500625 7.27875 -10.43875 6.495 -10.375 5.6875 C-10.106875 4.82125 -9.83875 3.955 -9.5625 3.0625 C-7.0625 1.8125 -7.0625 1.8125 -4.5625 1.0625 C-3.5625 0.0625 -3.5625 0.0625 0 0 Z " fill="#DAFAE1" transform="translate(58.5625,32.9375)"/>
<path d="M0 0 C0.33 0 0.66 0 1 0 C1.11745244 3.81223512 1.18766603 7.62399682 1.25 11.4375 C1.30027344 13.04141602 1.30027344 13.04141602 1.3515625 14.67773438 C1.43513747 21.50998795 0.81054784 27.16761824 -3 33 C-3.99 33.495 -3.99 33.495 -5 34 C-5 34.66 -5 35.32 -5 36 C-5.99 36 -6.98 36 -8 36 C-8 36.66 -8 37.32 -8 38 C-8.66 38 -9.32 38 -10 38 C-9.67 36.68 -9.34 35.36 -9 34 C-8.34 34 -7.68 34 -7 34 C-5.95989734 31.01247109 -4.97001602 28.01099995 -4 25 C-3.58814453 23.73542969 -3.58814453 23.73542969 -3.16796875 22.4453125 C-0.92936445 15.01270511 -0.3275033 7.73585377 0 0 Z " fill="#BEF3C7" transform="translate(130,56)"/>
<path d="M0 0 C2.475 0.495 2.475 0.495 5 1 C6.79321797 7.73146436 7.2158855 12.3523435 5 19 C4.34 19 3.68 19 3 19 C3 20.65 3 22.3 3 24 C3.99 24.33 4.98 24.66 6 25 C6.33 26.98 6.66 28.96 7 31 C1.60941176 25.79529412 1.60941176 25.79529412 0 23 C0.14621952 20.00249976 0.39578263 18.55773911 2.625 16.5 C3.07875 16.005 3.5325 15.51 4 15 C3.50494381 11.46126502 2.48345316 8.09821683 1.4375 4.6875 C1.16808594 3.80449219 0.89867187 2.92148437 0.62109375 2.01171875 C0.41613281 1.34785156 0.21117187 0.68398438 0 0 Z " fill="#C1F9CE" transform="translate(63,36)"/>
<path d="M0 0 C1.80791016 0.47566406 1.80791016 0.47566406 3.65234375 0.9609375 C9.91287077 2.35216573 16.17184494 2.4552427 22.5625 2.625 C23.76197266 2.66367188 24.96144531 2.70234375 26.19726562 2.7421875 C29.13136425 2.83570459 32.06546884 2.92145635 35 3 C31.29184314 6.70815686 25.39195668 6.10400391 20.375 6.25 C13.79678076 6.19178567 7.18186616 5.32898214 1 3 C0.67 2.01 0.34 1.02 0 0 Z " fill="#E7FCEC" transform="translate(57,112)"/>
<path d="M0 0 C0 1.65 0 3.3 0 5 C1.98 5.66 3.96 6.32 6 7 C6 9.31 6 11.62 6 14 C5.01 13.34 4.02 12.68 3 12 C3 11.34 3 10.68 3 10 C1.68 9.67 0.36 9.34 -1 9 C-1 8.34 -1 7.68 -1 7 C-2.32 6.67 -3.64 6.34 -5 6 C-5 5.01 -5 4.02 -5 3 C-5.66 2.67 -6.32 2.34 -7 2 C-4 0 -4 0 0 0 Z " fill="#37D756" transform="translate(112,21)"/>
<path d="M0 0 C2.875 0.5 2.875 0.5 5.875 2.5 C7.078125 4.9609375 7.078125 4.9609375 8.125 7.875 C8.65867187 9.30972656 8.65867187 9.30972656 9.203125 10.7734375 C9.8850165 13.54064834 9.8482027 14.86736194 8.875 17.5 C6.87206653 14.49559979 6.38228374 12.79006055 5.75 9.3125 C5.58242188 8.41144531 5.41484375 7.51039062 5.2421875 6.58203125 C5.12101562 5.89496094 4.99984375 5.20789062 4.875 4.5 C2.235 4.5 -0.405 4.5 -3.125 4.5 C-3.455 5.16 -3.785 5.82 -4.125 6.5 C-4.785 6.5 -5.445 6.5 -6.125 6.5 C-6.455 7.82 -6.785 9.14 -7.125 10.5 C-7.9375 8.875 -7.9375 8.875 -8.125 6.5 C-4.45205479 0.71232877 -4.45205479 0.71232877 0 0 Z " fill="#5EC871" transform="translate(58.125,34.5)"/>
<path d="M0 0 C2.76251673 0.85000515 5.43400506 1.71261497 8.015625 3.0234375 C13.86887283 5.99217111 19.44365132 7.1930405 26 6 C27.81362572 4.57960658 27.81362572 4.57960658 29 3 C29.99 3.33 30.98 3.66 32 4 C31.01 4.33 30.02 4.66 29 5 C29 5.99 29 6.98 29 8 C26.16607074 8.08174796 23.33455181 8.14084985 20.5 8.1875 C19.70851563 8.21263672 18.91703125 8.23777344 18.1015625 8.26367188 C11.96434307 8.33912949 6.13291673 7.68808158 1.27539062 3.52026367 C0 2 0 2 0 0 Z " fill="#D8FCDB" transform="translate(71,82)"/>
<path d="M0 0 C3.39417765 3.12621626 5.6062718 5.56541027 7 10 C8.32 10 9.64 10 11 10 C11 10.99 11 11.98 11 13 C11.99 12.67 12.98 12.34 14 12 C14.45375 12.474375 14.9075 12.94875 15.375 13.4375 C16.93258204 15.09027808 16.93258204 15.09027808 19 16 C19 16.99 19 17.98 19 19 C9.80434745 16.93097818 4.09381466 9.42847971 -1 2 C-0.67 1.34 -0.34 0.68 0 0 Z " fill="#58CC6E" transform="translate(58,65)"/>
<path d="M0 0 C2.75026417 -0.05404449 5.49946203 -0.09369306 8.25 -0.125 C9.02730469 -0.14175781 9.80460937 -0.15851562 10.60546875 -0.17578125 C14.67745234 -0.21058453 17.4223859 -0.12006761 21 2 C23.33203812 2.0777346 25.66839059 2.08967728 28 2 C28.66 4.31 29.32 6.62 30 9 C27.47542578 7.99107518 24.95156495 6.98049348 22.4296875 5.96484375 C21.58664063 5.62582031 20.74359375 5.28679688 19.875 4.9375 C19.02679688 4.59589844 18.17859375 4.25429688 17.3046875 3.90234375 C13.37302464 2.36299778 10.01528495 1.75383865 5.8125 1.4375 C4.72582031 1.35371094 3.63914062 1.26992188 2.51953125 1.18359375 C1.68808594 1.12300781 0.85664062 1.06242187 0 1 C0 0.67 0 0.34 0 0 Z " fill="#59D275" transform="translate(73,16)"/>
<path d="M0 0 C1 2 1 2 0.44140625 3.78515625 C0.15136719 4.53667969 -0.13867188 5.28820313 -0.4375 6.0625 C-3.55470817 15.95999508 -3.29195709 27.54128451 0.44140625 37.21484375 C1 39 1 39 0 41 C-3.55830639 34.3863886 -4.58243477 29.02469293 -4.375 21.5625 C-4.37371094 20.68529297 -4.37242188 19.80808594 -4.37109375 18.90429688 C-4.2912405 12.88424933 -3.86530185 6.76126919 -2 1 C-1.34 0.67 -0.68 0.34 0 0 Z " fill="#CDFAD0" transform="translate(26,41)"/>
<path d="M0 0 C2.0625 0.4375 2.0625 0.4375 4 1 C3.34 1 2.68 1 2 1 C1.773125 2.299375 1.54625 3.59875 1.3125 4.9375 C0.16674959 10.1387123 -1.95671163 14.63015004 -5 19 C-5.66 19.33 -6.32 19.66 -7 20 C-6.93993922 18.54052295 -6.8511311 17.08220728 -6.75 15.625 C-6.70359375 14.81289063 -6.6571875 14.00078125 -6.609375 13.1640625 C-6.40828125 12.44992188 -6.2071875 11.73578125 -6 11 C-4.67556021 10.3158352 -3.34214382 9.64874662 -2 9 C-1.3398387 7.07780473 -1.3398387 7.07780473 -1.3125 4.9375 C-1 1 -1 1 0 0 Z " fill="#E7FBEB" transform="translate(32,22)"/>
<path d="M0 0 C2 3 2 3 1.6875 5.375 C1 8 1 8 0.125 10.375 C-0.0715891 14.50337113 2.44304796 16.92988804 5 20 C4.34 20.33 3.68 20.66 3 21 C2.67 20.34 2.34 19.68 2 19 C1.360625 18.731875 0.72125 18.46375 0.0625 18.1875 C-2 17 -2 17 -3.375 14.75 C-4.18899284 11.16843152 -3.37700971 9.3736738 -2 6 C-1.62875 4.88625 -1.2575 3.7725 -0.875 2.625 C-0.58625 1.75875 -0.2975 0.8925 0 0 Z " fill="#40CE59" transform="translate(64,46)"/>
<path d="M0 0 C0.66 0.33 1.32 0.66 2 1 C1.67515625 1.87398437 1.67515625 1.87398437 1.34375 2.765625 C-1.86410201 12.21096703 -1.50122055 21.24206645 0 31 C-0.66 31 -1.32 31 -2 31 C-3.04545325 25.80645803 -3.21718332 20.77528089 -3.25 15.5 C-3.270625 14.67113281 -3.29125 13.84226562 -3.3125 12.98828125 C-3.34502173 7.87423943 -2.76046413 4.47485763 0 0 Z " fill="#56C769" transform="translate(34,43)"/>
<path d="M0 0 C2.125 0.375 2.125 0.375 4 1 C1.78077954 3.21922046 -0.44225455 5.43196956 -2.6875 7.625 C-5.01291149 9.77286324 -5.01291149 9.77286324 -6 12 C-7.64363134 12.72159424 -9.31050386 13.39351421 -11 14 C-9.57442379 10.82096506 -7.8226848 8.46341568 -5.5 5.875 C-4.8915625 5.19179688 -4.283125 4.50859375 -3.65625 3.8046875 C-2.46695076 2.50880012 -1.24373566 1.24373566 0 0 Z " fill="#D2F8D5" transform="translate(49,26)"/>
<path d="M0 0 C0.33 0 0.66 0 1 0 C1 2.31 1 4.62 1 7 C2.0725 6.67 3.145 6.34 4.25 6 C8 5 8 5 12 5 C12 5.66 12 6.32 12 7 C10.5682384 7.69937202 9.12932968 8.38412718 7.6875 9.0625 C6.88699219 9.44535156 6.08648437 9.82820313 5.26171875 10.22265625 C3 11 3 11 0 10 C-1.125 2.25 -1.125 2.25 0 0 Z " fill="#E5FBEA" transform="translate(22,109)"/>
<path d="M0 0 C5.85272256 0.45020943 10.08220119 3.03839227 15 6 C15 7.98 15 9.96 15 12 C13 8.25 13 8.25 13 6 C10.69 6 8.38 6 6 6 C5.67 4.68 5.34 3.36 5 2 C2.52733235 2.34444881 2.52733235 2.34444881 0 3 C-0.33 3.66 -0.66 4.32 -1 5 C-1.66 4.67 -2.32 4.34 -3 4 C-2.01 2.68 -1.02 1.36 0 0 Z " fill="#60C774" transform="translate(89,69)"/>
<path d="M0 0 C2.4375 1.5 2.4375 1.5 4 3 C2.906875 2.95875 1.81375 2.9175 0.6875 2.875 C-3.8471789 2.85075038 -8.06662862 3.69456311 -12.484375 4.66015625 C-15.01848548 5.00249726 -16.59731417 4.80276653 -19 4 C-5.81818182 -0.84848485 -5.81818182 -0.84848485 0 0 Z " fill="#C8F8CE" transform="translate(53,109)"/>
<path d="M0 0 C2 0 2 0 3.5625 1.5 C4.036875 1.995 4.51125 2.49 5 3 C5.33 3 5.66 3 6 3 C6.69260358 9.03554548 7.11251733 14.92406438 7 21 C6.67 21 6.34 21 6 21 C5.73445312 19.90300781 5.46890625 18.80601563 5.1953125 17.67578125 C4.83873185 16.22130753 4.4819504 14.76688302 4.125 13.3125 C3.95097656 12.59126953 3.77695313 11.87003906 3.59765625 11.12695312 C2.64902134 7.27971155 1.59509159 3.64284431 0 0 Z " fill="#D9FCDC" transform="translate(124,35)"/>
<path d="M0 0 C0.33 0 0.66 0 1 0 C1.12117188 0.65226562 1.24234375 1.30453125 1.3671875 1.9765625 C2.71393352 9.11748973 2.71393352 9.11748973 5 16 C5.66 16.33 6.32 16.66 7 17 C7.625 20.0625 7.625 20.0625 8 23 C3.29393321 18.96622847 0.27500828 14.26142638 -0.25 8.03515625 C-0.25 5.34463899 -0.17763237 2.68422247 0 0 Z " fill="#5EC873" transform="translate(49,43)"/>
<path d="M0 0 C0.33 0 0.66 0 1 0 C0.03644647 10.55808656 0.03644647 10.55808656 -1 15 C2.3 14.67 5.6 14.34 9 14 C6.50494038 16.49505962 5.32671112 16.35948376 1.875 16.625 C0.96492188 16.69976562 0.05484375 16.77453125 -0.8828125 16.8515625 C-1.93082031 16.92503906 -1.93082031 16.92503906 -3 17 C-2.36934845 11.2190275 -1.34844868 5.6556294 0 0 Z " fill="#68C87B" transform="translate(27,98)"/>
<path d="M0 0 C3.38499403 3.01532659 5.08440805 5.82334272 6.8125 10 C7.25207031 11.03125 7.69164063 12.0625 8.14453125 13.125 C9.00555303 16.01866224 9.08164957 17.23947104 8 20 C7.75765625 19.34773438 7.5153125 18.69546875 7.265625 18.0234375 C5.00491214 12.06725437 5.00491214 12.06725437 1.75 6.625 C0 4 0 4 0 0 Z " fill="#66CB78" transform="translate(120,30)"/>
<path d="M0 0 C1.11375 0.309375 2.2275 0.61875 3.375 0.9375 C11.09553205 2.69047104 19.11768389 2.67688456 27 3 C27 3.33 27 3.66 27 4 C23.22918278 4.02899599 19.45839417 4.04679729 15.6875 4.0625 C14.0797168 4.07506836 14.0797168 4.07506836 12.43945312 4.08789062 C11.41142578 4.09111328 10.38339844 4.09433594 9.32421875 4.09765625 C8.37635498 4.10289307 7.42849121 4.10812988 6.4519043 4.11352539 C4 4 4 4 1 3 C0.67 2.01 0.34 1.02 0 0 Z " fill="#D1FED9" transform="translate(57,112)"/>
<path d="M0 0 C3.44527661 1.24412767 6.25391752 2.54814064 9 5 C9.33 5.99 9.66 6.98 10 8 C10.66 8.33 11.32 8.66 12 9 C12.625 11.5625 12.625 11.5625 13 14 C12.34 14 11.68 14 11 14 C10.46375 12.906875 9.9275 11.81375 9.375 10.6875 C7.2515882 6.8973241 4.92602279 5.83214397 1 4 C0.125 1.8125 0.125 1.8125 0 0 Z " fill="#E5FDE8" transform="translate(96,22)"/>
<path d="M0 0 C0.33 1.32 0.66 2.64 1 4 C0.16855469 4.25523438 0.16855469 4.25523438 -0.6796875 4.515625 C-5.25122977 5.90825986 -5.25122977 5.90825986 -8.5 9.1875 C-8.7475 10.0846875 -8.7475 10.0846875 -9 11 C-10.32 10.67 -11.64 10.34 -13 10 C-11.58829091 8.70291686 -10.17041804 7.41254022 -8.75 6.125 C-7.96109375 5.40570312 -7.1721875 4.68640625 -6.359375 3.9453125 C-4.27973832 2.23064517 -2.45580733 1.07019127 0 0 Z " fill="#5CCA71" transform="translate(51,14)"/>
<path d="M0 0 C1.60407328 -0.02708567 3.2082785 -0.04643483 4.8125 -0.0625 C5.70582031 -0.07410156 6.59914063 -0.08570313 7.51953125 -0.09765625 C10 0 10 0 13 1 C13 2.32 13 3.64 13 5 C14.98 5.66 16.96 6.32 19 7 C16 8 16 8 13.8125 7.0625 C13.214375 6.711875 12.61625 6.36125 12 6 C12 5.34 12 4.68 12 4 C6.06 2.515 6.06 2.515 0 1 C0 0.67 0 0.34 0 0 Z " fill="#F6FAF0" transform="translate(89,6)"/>
<path d="M0 0 C0.66 0.33 1.32 0.66 2 1 C-0.12121657 3.33333823 -2.01594365 4.9148886 -5 6 C-7.25 5.625 -7.25 5.625 -9 5 C-9 5.66 -9 6.32 -9 7 C-11.97 7 -14.94 7 -18 7 C-18 6.67 -18 6.34 -18 6 C-16.78441406 5.65066406 -15.56882812 5.30132812 -14.31640625 4.94140625 C-12.73172137 4.4819414 -11.14708863 4.0222967 -9.5625 3.5625 C-8.76005859 3.33240234 -7.95761719 3.10230469 -7.13085938 2.86523438 C-3.25946753 2.01294138 -3.25946753 2.01294138 0 0 Z " fill="#BAF4C7" transform="translate(103,108)"/>
<path d="M0 0 C-3.02796622 6.90561684 -9.06530864 12.22612346 -16 15 C-16 14.34 -16 13.68 -16 13 C-15.34 13 -14.68 13 -14 13 C-14 12.34 -14 11.68 -14 11 C-13.2575 10.566875 -12.515 10.13375 -11.75 9.6875 C-8.69910949 7.81536264 -7.13373455 5.8449794 -5 3 C-2.31034483 0 -2.31034483 0 0 0 Z " fill="#52C76C" transform="translate(120,92)"/>
<path d="M0 0 C0.99 0 1.98 0 3 0 C4.60725635 3.21451269 4.05748185 6.43612536 4 10 C2.35 10.33 0.7 10.66 -1 11 C-0.9278125 10.28972656 -0.855625 9.57945313 -0.78125 8.84765625 C-0.6884375 7.92855469 -0.595625 7.00945312 -0.5 6.0625 C-0.4071875 5.14597656 -0.314375 4.22945313 -0.21875 3.28515625 C-0.05708522 1.64507518 -0.05708522 1.64507518 0 0 Z " fill="#E8FEEF" transform="translate(103,74)"/>
<path d="M0 0 C2.31 0 4.62 0 7 0 C6.13375 0.3403125 6.13375 0.3403125 5.25 0.6875 C2.7879314 1.91763057 2.7879314 1.91763057 1.125 4.625 C-1 7 -1 7 -4.25 7.3125 C-5.1575 7.209375 -6.065 7.10625 -7 7 C-7.33 6.34 -7.66 5.68 -8 5 C-6.576875 4.87625 -6.576875 4.87625 -5.125 4.75 C-1.89538209 4.34925077 -1.89538209 4.34925077 -0.625 1.9375 C-0.41875 1.298125 -0.2125 0.65875 0 0 Z " fill="#BFF8CC" transform="translate(86,68)"/>
<path d="M0 0 C0.33 0 0.66 0 1 0 C1 3.63 1 7.26 1 11 C0.34 11 -0.32 11 -1 11 C-1 15.62 -1 20.24 -1 25 C-1.33 25 -1.66 25 -2 25 C-2.05455124 22.33305052 -2.09393392 19.66724502 -2.125 17 C-2.14175781 16.25621094 -2.15851562 15.51242188 -2.17578125 14.74609375 C-2.22144715 9.49451557 -1.45712451 5.0483054 0 0 Z " fill="#7BD68C" transform="translate(25,45)"/>
<path d="M0 0 C2.475 0.495 2.475 0.495 5 1 C5.66 4.3 6.32 7.6 7 11 C6.01 11.33 5.02 11.66 4 12 C2.68 8.04 1.36 4.08 0 0 Z " fill="#D2FAD8" transform="translate(63,36)"/>
<path d="M0 0 C2 3 2 3 1.625 6.1875 C1.41875 7.115625 1.2125 8.04375 1 9 C0.34 9 -0.32 9 -1 9 C-1 9.66 -1 10.32 -1 11 C-1.99 11 -2.98 11 -4 11 C-4 11.66 -4 12.32 -4 13 C-4.66 13 -5.32 13 -6 13 C-5.67 11.68 -5.34 10.36 -5 9 C-4.34 9 -3.68 9 -3 9 C-2.01 6.03 -1.02 3.06 0 0 Z " fill="#D0F7D8" transform="translate(126,81)"/>
<path d="M0 0 C3.59634744 3.49359465 6.83451967 7.11098131 10 11 C9.67 11.66 9.34 12.32 9 13 C8.566875 12.525625 8.13375 12.05125 7.6875 11.5625 C5.97690387 9.76313043 5.97690387 9.76313043 3 9 C3 8.34 3 7.68 3 7 C2.34 7 1.68 7 1 7 C0.67 4.69 0.34 2.38 0 0 Z " fill="#C5F6CC" transform="translate(53,62)"/>
<path d="M0 0 C0.66 0 1.32 0 2 0 C1.67 8.91 1.34 17.82 1 27 C0.67 27 0.34 27 0 27 C-0.19582583 22.68783519 -0.38027074 18.3752591 -0.5625 14.0625 C-0.61857422 12.83080078 -0.67464844 11.59910156 -0.73242188 10.33007812 C-0.78076172 9.16025391 -0.82910156 7.99042969 -0.87890625 6.78515625 C-0.9260376 5.70113525 -0.97316895 4.61711426 -1.02172852 3.50024414 C-1 1 -1 1 0 0 Z " fill="#EDFEED" transform="translate(21,46)"/>
<path d="M0 0 C0.33 0.99 0.66 1.98 1 3 C-1.64 2.67 -4.28 2.34 -7 2 C-7.33 2.99 -7.66 3.98 -8 5 C-9.4375 6.5625 -9.4375 6.5625 -11 8 C-11.66 8.66 -12.32 9.32 -13 10 C-12.63662961 3.58045641 -12.63662961 3.58045641 -9.875 1.0625 C-6.43298792 -0.20954794 -3.64158426 -0.21421084 0 0 Z " fill="#C4FAD1" transform="translate(62,33)"/>
<path d="M0 0 C2.75026417 -0.05404449 5.49946203 -0.09369306 8.25 -0.125 C9.02730469 -0.14175781 9.80460937 -0.15851562 10.60546875 -0.17578125 C17.72431144 -0.23662606 17.72431144 -0.23662606 21 2 C21 2.66 21 3.32 21 4 C19.7625 3.690625 18.525 3.38125 17.25 3.0625 C11.54835497 1.78031188 5.82126496 1.37429453 0 1 C0 0.67 0 0.34 0 0 Z " fill="#63CD77" transform="translate(73,16)"/>
<path d="M0 0 C-1 2 -1 2 -3.109375 2.8515625 C-3.98078125 3.10679688 -4.8521875 3.36203125 -5.75 3.625 C-7.04164062 4.01558594 -7.04164062 4.01558594 -8.359375 4.4140625 C-10.99729006 4.99939868 -13.30801576 5.10651736 -16 5 C-12.04477421 1.04477421 -5.5114368 -0.53336485 0 0 Z " fill="#5CCA72" transform="translate(103,108)"/>
<path d="M0 0 C0.66 0.33 1.32 0.66 2 1 C-4 7 -4 7 -6.50390625 7.09765625 C-8.01791016 7.08025391 -8.01791016 7.08025391 -9.5625 7.0625 C-10.57441406 7.05347656 -11.58632812 7.04445313 -12.62890625 7.03515625 C-13.41136719 7.02355469 -14.19382812 7.01195313 -15 7 C-15 6.67 -15 6.34 -15 6 C-14.30132812 5.97421875 -13.60265625 5.9484375 -12.8828125 5.921875 C-11.97273438 5.86515625 -11.06265625 5.8084375 -10.125 5.75 C-9.22007813 5.70359375 -8.31515625 5.6571875 -7.3828125 5.609375 C-6.59648438 5.40828125 -5.81015625 5.2071875 -5 5 C-3.83638482 3.04784655 -3.83638482 3.04784655 -3 1 C-2.01 0.67 -1.02 0.34 0 0 Z " fill="#74D483" transform="translate(101,82)"/>
<path d="M0 0 C2.52845528 1.26422764 2.76422764 2.52845528 4 5 C4.66 5.33 5.32 5.66 6 6 C6.625 8.0625 6.625 8.0625 7 10 C6.01 10 5.02 10 4 10 C2.39453125 8.03125 2.39453125 8.03125 0.8125 5.5 C0.28269531 4.6646875 -0.24710937 3.829375 -0.79296875 2.96875 C-1.19128906 2.3190625 -1.58960937 1.669375 -2 1 C-1.34 0.67 -0.68 0.34 0 0 Z " fill="#D6F9DB" transform="translate(118,23)"/>
<path d="M0 0 C1.5843317 0.08768248 3.16753567 0.19587329 4.75 0.3125 C6.07257813 0.39951172 6.07257813 0.39951172 7.421875 0.48828125 C10.32303774 1.0641181 11.79225607 2.07596148 14 4 C8.32723489 4.29341888 5.00932754 4.00559652 0 1 C0 0.67 0 0.34 0 0 Z " fill="#D4FCDD" transform="translate(82,18)"/>
<path d="M0 0 C0.66 0 1.32 0 2 0 C0.01599247 8.30150517 0.01599247 8.30150517 -4 11.0625 C-7 12 -7 12 -10 12 C-8.38216989 10.22038688 -7.14516309 9.06598322 -4.9375 8.0625 C-1.66152804 6.26599925 -1.13812757 3.4143827 0 0 Z " fill="#F1FCF2" transform="translate(120,94)"/>
<path d="M0 0 C0.97591583 3.38317487 0.85856655 5.5657338 0 9 C-0.66 9 -1.32 9 -2 9 C-2.33 10.32 -2.66 11.64 -3 13 C-3.93045933 10.44855176 -4.08564091 9.25993522 -3.22265625 6.640625 C-2.83980469 5.85171875 -2.45695312 5.0628125 -2.0625 4.25 C-1.68222656 3.45078125 -1.30195313 2.6515625 -0.91015625 1.828125 C-0.60980469 1.22484375 -0.30945313 0.6215625 0 0 Z " fill="#62D077" transform="translate(30,34)"/>
<path d="M0 0 C-2.84502097 1.89668064 -5.57299885 3.23263478 -8.6875 4.625 C-9.68136719 5.07101563 -10.67523438 5.51703125 -11.69921875 5.9765625 C-12.45847656 6.31429688 -13.21773437 6.65203125 -14 7 C-13.734375 5.109375 -13.734375 5.109375 -13 3 C-9.11421304 0.56684368 -4.54771913 -0.42634867 0 0 Z " fill="#CCFBD5" transform="translate(62,9)"/>
<path d="M0 0 C-1.62395997 0.50336767 -3.24920541 1.00258976 -4.875 1.5 C-5.77992187 1.7784375 -6.68484375 2.056875 -7.6171875 2.34375 C-10 3 -10 3 -12 3 C-12 3.66 -12 4.32 -12 5 C-12.66 5 -13.32 5 -14 5 C-13.67 3.68 -13.34 2.36 -13 1 C-11.58622218 0.63447197 -10.16879424 0.28304505 -8.75 -0.0625 C-7.96109375 -0.25972656 -7.1721875 -0.45695313 -6.359375 -0.66015625 C-3.89605178 -1.01497267 -2.34395868 -0.76877544 0 0 Z " fill="#3ED15D" transform="translate(66,12)"/>
<path d="M0 0 C1.2077558 3.62326739 0.54311128 4.64146369 -1 8 C-1.66 8 -2.32 8 -3 8 C-3.33 8.66 -3.66 9.32 -4 10 C-3.38461538 3.47692308 -3.38461538 3.47692308 -1.4375 1.0625 C-0.7259375 0.5365625 -0.7259375 0.5365625 0 0 Z " fill="#48CE62" transform="translate(119,79)"/>
<path d="M0 0 C1.875 0.125 1.875 0.125 4 1 C5.88698167 5.05701058 6.21117043 8.56542098 6 13 C4.43926745 10.65890118 3.13626133 8.43666597 1.875 5.9375 C1.34519531 4.89916016 1.34519531 4.89916016 0.8046875 3.83984375 C0 2 0 2 0 0 Z " fill="#5BCB73" transform="translate(115,38)"/>
<path d="M0 0 C1.99097846 2.98646769 2.94124926 5.59687262 4 9 C2.68 8.67 1.36 8.34 0 8 C-0.38063221 5.6739143 -0.71269945 3.33944736 -1 1 C-0.67 0.67 -0.34 0.34 0 0 Z " fill="#5BCB6B" transform="translate(34,75)"/>
<path d="M0 0 C2.96404505 2.80804268 5.44499019 5.18315774 7 9 C3.2047869 7.50902342 1.38957269 5.24299151 -1 2 C-0.67 1.34 -0.34 0.68 0 0 Z " fill="#4ACB5F" transform="translate(58,65)"/>
<path d="M0 0 C0.226875 0.515625 0.45375 1.03125 0.6875 1.5625 C2.4975553 4.92403127 4.73996404 7.92911144 7 11 C6.01 11.495 6.01 11.495 5 12 C4.67 11.34 4.34 10.68 4 10 C1.98330173 8.86649466 1.98330173 8.86649466 0 8 C0 5.36 0 2.72 0 0 Z " fill="#58CD71" transform="translate(62,55)"/>
<path d="M0 0 C3.7952131 1.49097658 5.61042731 3.75700849 8 7 C7.01 7.495 7.01 7.495 6 8 C6 7.34 6 6.68 6 6 C4.02 5.34 2.04 4.68 0 4 C0 2.68 0 1.36 0 0 Z " fill="#59CD70" transform="translate(112,22)"/>
<path d="M0 0 C2.3125 -0.3125 2.3125 -0.3125 5 0 C6.8125 2.5 6.8125 2.5 8 5 C5 5 5 5 2.3125 2.5 C1.549375 1.675 0.78625 0.85 0 0 Z " fill="#CFF6D3" transform="translate(70,67)"/>
<path d="M0 0 C-1.98 2.31 -3.96 4.62 -6 7 C-7 3 -7 3 -6 0 C-4 -1 -4 -1 0 0 Z " fill="#D4F9D9" transform="translate(40,23)"/>
<path d="M0 0 C1.2065625 0.0309375 1.2065625 0.0309375 2.4375 0.0625 C1.798125 0.330625 1.15875 0.59875 0.5 0.875 C-1.89381686 1.94917752 -1.89381686 1.94917752 -2.5625 5.0625 C-3.125 3.125 -3.125 3.125 -3.5625 1.0625 C-2.5625 0.0625 -2.5625 0.0625 0 0 Z M-4.5625 5.0625 C-4.2325 5.7225 -3.9025 6.3825 -3.5625 7.0625 C-4.8825 7.3925 -6.2025 7.7225 -7.5625 8.0625 C-7.8925 7.4025 -8.2225 6.7425 -8.5625 6.0625 C-7.2425 5.7325 -5.9225 5.4025 -4.5625 5.0625 Z " fill="#42D25B" transform="translate(91.5625,70.9375)"/>
<path d="M0 0 C1.64666203 0.1135629 3.29236082 0.24117381 4.9375 0.375 C5.85402344 0.44460937 6.77054688 0.51421875 7.71484375 0.5859375 C8.84599609 0.79089844 8.84599609 0.79089844 10 1 C10.33 1.66 10.66 2.32 11 3 C8.83032311 3.95465783 7.43671207 4.14401212 5.17578125 3.3984375 C3.4315257 2.64129615 1.71372869 1.82390802 0 1 C0 0.67 0 0.34 0 0 Z " fill="#5DCE75" transform="translate(53,109)"/>
<path d="M0 0 C1.67542976 0.28604898 3.34385343 0.61781233 5 1 C3.59240479 3.81519043 1.77416723 4.61291638 -1 6 C-1.99 5.67 -2.98 5.34 -4 5 C-1.125 1.125 -1.125 1.125 0 0 Z " fill="#F3FAF4" transform="translate(96,95)"/>
<path d="M0 0 C0.99 0.33 1.98 0.66 3 1 C3.2226746 2.43534841 3.42761906 3.87345525 3.625 5.3125 C3.74101563 6.11300781 3.85703125 6.91351563 3.9765625 7.73828125 C4 10 4 10 2 13 C2.04125 11.96875 2.0825 10.9375 2.125 9.875 C2.00424851 6.13170373 1.35127982 3.46265453 0 0 Z " fill="#C9FCD4" transform="translate(37,80)"/>
<path d="M0 0 C2.53833449 1.26916725 2.89400901 2.41624809 4.125 4.9375 C4.47820312 5.64777344 4.83140625 6.35804687 5.1953125 7.08984375 C6 9 6 9 6 11 C5.34 11 4.68 11 4 11 C3.67 10.01 3.34 9.02 3 8 C2.34 7.67 1.68 7.34 1 7 C0.59270772 4.67843403 0.25561323 2.3431213 0 0 Z " fill="#C7F9CE" transform="translate(113,36)"/>
<path d="M0 0 C2.3125 0.125 2.3125 0.125 5 1 C6.875 3.9375 6.875 3.9375 8 7 C7.67 7.66 7.34 8.32 7 9 C5.83037314 7.69013727 4.66437056 6.3770374 3.5 5.0625 C2.8503125 4.33160156 2.200625 3.60070312 1.53125 2.84765625 C0 1 0 1 0 0 Z " fill="#60CA71" transform="translate(106,27)"/>
<path d="M0 0 C2.25 0.25 2.25 0.25 4 1 C2.25 3.0625 2.25 3.0625 0 5 C-2.25 4.75 -2.25 4.75 -4 4 C-2.25 1.9375 -2.25 1.9375 0 0 Z " fill="#D7FBE0" transform="translate(49,26)"/>
<path d="M0 0 C0.33 0.99 0.66 1.98 1 3 C-1.25 4.5625 -1.25 4.5625 -4 6 C-5.32 5.67 -6.64 5.34 -8 5 C-4.04 2.525 -4.04 2.525 0 0 Z " fill="#B9F3C6" transform="translate(111,102)"/>
<path d="M0 0 C0 0.66 0 1.32 0 2 C-3.47325181 3.1577506 -6.36067448 3.06866652 -10 3 C-6.84916414 -0.15083586 -4.41812253 0 0 0 Z " fill="#5ACA70" transform="translate(46,101)"/>
<path d="M0 0 C0.99 0.33 1.98 0.66 3 1 C3 2.32 3 3.64 3 5 C2.34 5 1.68 5 1 5 C1 6.32 1 7.64 1 9 C0.34 9 -0.32 9 -1 9 C-1.09765625 2.84765625 -1.09765625 2.84765625 -1 1 C-0.67 0.67 -0.34 0.34 0 0 Z " fill="#F4F9F2" transform="translate(110,80)"/>
<path d="M0 0 C0 3.17370278 -0.30933342 4.3794668 -2 7 C-4.125 8.25 -4.125 8.25 -6 9 C-5.67 7.68 -5.34 6.36 -5 5 C-4.34 5 -3.68 5 -3 5 C-2.5359375 4.0409375 -2.5359375 4.0409375 -2.0625 3.0625 C-1 1 -1 1 0 0 Z " fill="#6ED17E" transform="translate(37,25)"/>
<path d="M0 0 C3.35595828 0.59927826 5.37801226 1.84622436 8 4 C7.67 4.99 7.34 5.98 7 7 C5 5.625 5 5.625 3 4 C3 3.34 3 2.68 3 2 C2.01 1.67 1.02 1.34 0 1 C0 0.67 0 0.34 0 0 Z " fill="#C7F7CB" transform="translate(108,17)"/>
<path d="M0 0 C1.65 0.33 3.3 0.66 5 1 C1.49461443 2.96301592 -2.13351728 3.95902388 -6 5 C-6 4.34 -6 3.68 -6 3 C-4.35 3 -2.7 3 -1 3 C-0.67 2.01 -0.34 1.02 0 0 Z " fill="#62CB78" transform="translate(63,16)"/>
<path d="M0 0 C0.66 0.33 1.32 0.66 2 1 C-0.12780579 3.34058637 -2.11562221 4.70700306 -5 6 C-5.66 5.34 -6.32 4.68 -7 4 C-1.7265625 0.77734375 -1.7265625 0.77734375 0 0 Z " fill="#DAFCDD" transform="translate(103,108)"/>
<path d="M0 0 C0.66 0 1.32 0 2 0 C2 3.63 2 7.26 2 11 C1.01 11 0.02 11 -1 11 C-0.9278125 10.28972656 -0.855625 9.57945313 -0.78125 8.84765625 C-0.6884375 7.92855469 -0.595625 7.00945312 -0.5 6.0625 C-0.4071875 5.14597656 -0.314375 4.22945313 -0.21875 3.28515625 C-0.05708522 1.64507518 -0.05708522 1.64507518 0 0 Z " fill="#C1F6CA" transform="translate(103,74)"/>
<path d="M0 0 C2.64 1.98 5.28 3.96 8 6 C7.01 6.495 7.01 6.495 6 7 C2.99390037 5.99796679 1.93823179 5.39971554 0 3 C0 2.01 0 1.02 0 0 Z " fill="#CAFAD4" transform="translate(63,75)"/>
<path d="M0 0 C1.32 0 2.64 0 4 0 C4 0.66 4 1.32 4 2 C5.65 2 7.3 2 9 2 C9.33 2.99 9.66 3.98 10 5 C2.42857143 3.14285714 2.42857143 3.14285714 0 0 Z " fill="#C8F7CF" transform="translate(93,69)"/>
<path d="M0 0 C2.31 0 4.62 0 7 0 C6.38125 0.28875 5.7625 0.5775 5.125 0.875 C2.86674235 1.93720042 2.86674235 1.93720042 1 4 C0.01 4 -0.98 4 -2 4 C-1.34 2.68 -0.68 1.36 0 0 Z " fill="#DAFAE1" transform="translate(86,68)"/>
<path d="M0 0 C0.33 1.32 0.66 2.64 1 4 C-0.32 4 -1.64 4 -3 4 C-3.66 3.34 -4.32 2.68 -5 2 C-2 0 -2 0 0 0 Z " fill="#32D651" transform="translate(110,21)"/>
<path d="M0 0 C2.31 0 4.62 0 7 0 C6.67 0.99 6.34 1.98 6 3 C4.35 3 2.7 3 1 3 C0.67 2.01 0.34 1.02 0 0 Z " fill="#46D060" transform="translate(45,23)"/>
<path d="M0 0 C0 0.66 0 1.32 0 2 C-1.75 3.6875 -1.75 3.6875 -4 5 C-6.25 4.6875 -6.25 4.6875 -8 4 C-2.25 0 -2.25 0 0 0 Z " fill="#C8FBCC" transform="translate(59,21)"/>
<path d="M0 0 C2.31 0 4.62 0 7 0 C6.01 1.485 6.01 1.485 5 3 C2.03 2.505 2.03 2.505 -1 2 C-0.67 1.34 -0.34 0.68 0 0 Z " fill="#33D84F" transform="translate(61,108)"/>
<path d="M0 0 C0.66 0 1.32 0 2 0 C1.67 1.65 1.34 3.3 1 5 C-0.98 5 -2.96 5 -5 5 C-3.625 3.5 -3.625 3.5 -2 2 C-1.34 2 -0.68 2 0 2 C0 1.34 0 0.68 0 0 Z " fill="#6CD37B" transform="translate(103,96)"/>
<path d="M0 0 C0.33 0.66 0.66 1.32 1 2 C0.06421005 4.35981813 -0.93347808 6.69631264 -2 9 C-2.33 9 -2.66 9 -3 9 C-3.36923077 3.46153846 -3.36923077 3.46153846 -1.5 1.125 C-1.005 0.75375 -0.51 0.3825 0 0 Z " fill="#D4FBDA" transform="translate(26,41)"/>
</svg>
